<svg width="19" height="24" viewBox="0 0 19 24" fill="none" xmlns="http://www.w3.org/2000/svg">
<path d="M14 5.78H2L2 18H9V20H2C0.9 20 0 19.1 0 18L0 6C0 4.9 0.9 4 2 4H14C15.1 4 16 4.9 16 6V13H14V5.78Z" fill="#F5F5F5"/>
<path d="M16 23L14 23V20H11C11.01 19.99 11 18 11 18H14L14 15.01C14.01 15 16 15.01 16 15.01L16 18L19 18V20L16 20V23Z" fill="#F5F5F5"/>
<path d="M9 16H4V14L9 14L9 16Z" fill="#F5F5F5"/>
<path d="M4 13V11L12 11V13L4 13Z" fill="#F5F5F5"/>
<path d="M12 10L4 10V8L12 8V10Z" fill="#F5F5F5"/>
</svg>
